:FULLY-SPECIFIED
:DEGREES
1067
root 1.91092 15.7604 -2.1737 2360.9 -81.4259 -2358.22
lowerback 4.0799 2.40347 -6.72789
upperback -1.72796 2.79465 -0.272195
thorax -4.40225 1.56477 3.26021
lowerneck -17.9899 1.28254 1.89789
upperneck 28.3272 1.5143 -2.45516
head 12.3997 0.362895 -1.05961
rclavicle -6.95746e-015 -1.4561e-014
rhumerus -29.4658 -16.776 -84.6017
rradius 16.9525
rwrist 13.4923
rhand -30.3599 -17.1805
rfingers 7.12502
rthumb -3.66503 -47.1287
lclavicle -6.95746e-015 -1.4561e-014
lhumerus -29.3754 -2.87189 92.5524
lradius 23.5815
lwrist 5.67818
lhand -30.7348 16.1517
lfingers 7.12502
lthumb -4.02703 46.0934
rfemur -14.4594 -0.972496 15.7622
rtibia 62.6574
rfoot 1.1164 -15.4676
rtoes -17.0811
lfemur -13.7589 -5.28062 -27.511
ltibia 22.4669
lfoot -9.36859 8.93756
ltoes -4.02422
1068
root 1.91944 15.7574 -2.15844 2360.77 -81.5333 -2358.2
lowerback 4.06789 2.2899 -6.67134
upperback -1.64773 2.65468 -0.201762
thorax -4.29641 1.49058 3.31709
lowerneck -18.028 1.32676 1.88418
upperneck 28.3257 1.59114 -2.48435
head 12.4093 0.391302 -1.05618
rclavicle -1.92821e-014 -9.93923e-015
rhumerus -30.4239 -18.2518 -83.4112
rradius 16.0343
rwrist 15.6883
rhand -30.3615 -17.1481
rfingers 7.12502
rthumb -3.66658 -47.0963
lclavicle -1.92821e-014 -9.93923e-015
lhumerus -28.6437 -3.56049 92.624
lradius 24.3715
lwrist 6.40802
lhand -30.9726 16.0464
lfingers 7.12502
lthumb -4.25669 45.9836
rfemur -15.7294 -1.16268 15.858
rtibia 63.7672
rfoot -0.309335 -17.0175
rtoes -14.7539
lfemur -12.9466 -5.39793 -27.7094
ltibia 22.3121
lfoot -9.74195 9.00137
ltoes -4.16261
1069
root 1.93086 15.7575 -2.14671 2360.59 -81.6466 -2358.09
lowerback 4.06237 2.20488 -6.64021
upperback -1.59603 2.54953 -0.127799
thorax -4.22944 1.43609 3.38747
lowerneck -18.0113 1.3616 1.8854
upperneck 28.286 1.64547 -2.49719
head 12.3916 0.41443 -1.05218
rclavicle -3.69739e-014 8.49804e-015
rhumerus -31.4883 -20.1152 -81.9286
rradius 15.1151
rwrist 18.2544
rhand -30.3867 -17.1318
rfingers 7.12502
rthumb -3.69085 -47.0796
lclavicle -3.69739e-014 8.49804e-015
lhumerus -27.947 -4.41589 92.7125
lradius 25.2135
lwrist 7.37976
lhand -31.177 16.0457
lfingers 7.12502
lthumb -4.45406 45.9789
rfemur -16.9787 -1.24326 16.0084
rtibia 64.5401
rfoot -1.57071 -18.2246
rtoes -12.9235
lfemur -12.2365 -5.49107 -27.8517
ltibia 22.1895
lfoot -10.1791 9.01716
ltoes -4.14301
1070
root 1.94253 15.7521 -2.13567 2360.81 -81.7945 -2358.41
lowerback 4.08229 2.08322 -6.67541
upperback -1.54418 2.38967 -0.0496417
thorax -4.17384 1.35643 3.50303
lowerneck -17.991 1.39004 1.85003
upperneck 28.2751 1.69524 -2.4924
head 12.384 0.432995 -1.03642
rclavicle 3.57812e-015 1.10201e-014
rhumerus -32.667 -21.9675 -80.3061
rradius 14.3169
rwrist 20.7654
rhand -30.4379 -16.9603
rfingers 7.12502
rthumb -3.74036 -46.9073
lclavicle 3.57812e-015 1.10201e-014
lhumerus -27.2383 -4.81505 92.6469
lradius 25.9265
lwrist 7.73343
lhand -31.473 15.9305
lfingers 7.12502
lthumb -4.73992 45.8574
rfemur -18.107 -1.31348 16.105
rtibia 65.0587
rfoot -2.90233 -18.8819
rtoes -11.871
lfemur -11.4798 -5.61158 -28.0519
ltibia 22.0759
lfoot -10.6364 9.05888
ltoes -4.11776
1071
root 1.9579 15.7432 -2.12584 2361.17 -81.9218 -2358.87
lowerback 4.1624 1.98524 -6.76941
upperback -1.51572 2.25316 0.0480309
thorax -4.18238 1.29259 3.66739
lowerneck -17.9367 1.41997 1.79674
upperneck 28.2417 1.76144 -2.51376
head 12.3609 0.453834 -1.02474
rclavicle 1.98785e-015 9.88954e-015
rhumerus -33.9868 -23.7237 -78.4952
rradius 13.6434
rwrist 23.347
rhand -30.4982 -16.9241
rfingers 7.12502
rthumb -3.79856 -46.87
lclavicle 1.98785e-015 9.88954e-015
lhumerus -26.5149 -5.22986 92.6395
lradius 26.6168
lwrist 8.3859
lhand -31.6406 15.9625
lfingers 7.12502
lthumb -4.90171 45.8858
rfemur -19.1974 -1.26824 16.192
rtibia 65.3231
rfoot -4.12662 -19.1718
rtoes -11.9291
lfemur -10.7834 -5.69323 -28.2726
ltibia 22.0484
lfoot -11.0449 9.09817
ltoes -4.53216
1072
root 1.97519 15.7328 -2.11817 2362.13 -82.1569 -2359.99
lowerback 4.30881 1.87332 -6.8838
upperback -1.45325 2.09117 0.112369
thorax -4.18843 1.21497 3.80974
lowerneck -17.9638 1.42129 1.7481
upperneck 28.2493 1.77703 -2.50893
head 12.3694 0.455808 -1.01217
rclavicle -1.43125e-014 -4.52235e-015
rhumerus -35.3494 -25.5884 -76.5665
rradius 13.1034
rwrist 25.7321
rhand -30.5267 -16.8579
rfingers 7.12502
rthumb -3.82612 -46.8033
lclavicle -1.43125e-014 -4.52235e-015
lhumerus -25.7987 -5.61725 92.5567
lradius 27.3609
lwrist 8.76928
lhand -31.8567 15.9678
lfingers 7.12502
lthumb -5.11036 45.8862
rfemur -20.1436 -1.27187 16.246
rtibia 65.3368
rfoot -5.31171 -19.102
rtoes -12.2955
lfemur -10.0626 -5.72282 -28.5248
ltibia 22.0469
lfoot -11.492 8.94279
ltoes -4.69119
1073
root 1.99445 15.7172 -2.11071 2362.97 -82.2788 -2360.97
lowerback 4.48543 1.80071 -6.96212
upperback -1.4346 1.97652 0.119707
thorax -4.25875 1.16189 3.86705
lowerneck -17.9572 1.41306 1.71563
upperneck 28.2821 1.75199 -2.43909
head 12.3794 0.449515 -0.984531
rclavicle 5.96354e-015 7.95139e-016
rhumerus -36.9304 -27.7721 -74.3913
rradius 12.6466
rwrist 27.9635
rhand -30.4334 -16.8549
rfingers 7.12502
rthumb -3.736 -46.8019
lclavicle 5.96354e-015 7.95139e-016
lhumerus -25.1337 -6.07014 92.4125
lradius 28.1077
lwrist 9.29805
lhand -32.0072 16.0836
lfingers 7.12502
lthumb -5.25572 45.9984
rfemur -21.0824 -1.16416 16.2743
rtibia 65.1603
rfoot -6.55707 -18.8494
rtoes -12.4567
lfemur -9.37254 -5.73269 -28.7861
ltibia 22.0629
lfoot -11.9319 8.88279
ltoes -4.55275
1074
root 2.01498 15.7019 -2.10384 2364 -82.5002 -2362.19
lowerback 4.68704 1.67663 -7.08535
upperback -1.36592 1.79276 0.182027
thorax -4.28548 1.07412 4.01422
lowerneck -17.9989 1.43327 1.67064
upperneck 28.3002 1.7817 -2.39623
head 12.3951 0.463061 -0.955957
rclavicle -3.97569e-016 7.30534e-015
rhumerus -38.2097 -28.9607 -72.7003
rradius 12.2743
rwrist 29.0726
rhand -30.5336 -16.7078
rfingers 7.12502
rthumb -3.83273 -46.6531
lclavicle -3.97569e-016 7.30534e-015
lhumerus -24.4428 -6.33215 92.2614
lradius 28.8135
lwrist 9.82296
lhand -32.2841 15.8169
lfingers 7.12502
lthumb -5.523 45.725
rfemur -21.8722 -1.06013 16.3508
rtibia 64.7278
rfoot -7.89485 -18.7388
rtoes -12.8217
lfemur -8.66827 -5.70067 -29.0255
ltibia 22.1384
lfoot -12.2951 8.7039
ltoes -5.01143
1075
root 2.03671 15.6773 -2.09975 2365.69 -82.5951 -2363.94
lowerback 4.76116 1.58485 -7.30203
upperback -1.34667 1.65091 0.184485
thorax -4.29731 1.00911 4.15026
lowerneck -18.0398 1.45948 1.66911
upperneck 28.3233 1.81103 -2.36902
head 12.4132 0.479029 -0.940867
rclavicle -6.44062e-014 2.70844e-014
rhumerus -39.2358 -29.4063 -71.6501
rradius 12.2409
rwrist 28.5974
rhand -30.2447 -17.4764
rfingers 7.12502
rthumb -3.55378 -47.4266
lclavicle -6.44062e-014 2.70844e-014
lhumerus -23.7786 -6.4896 92.0278
lradius 29.5857
lwrist 9.81285
lhand -32.2204 15.8833
lfingers 7.12502
lthumb -5.46152 45.7929
rfemur -22.8696 -0.998756 16.3237
rtibia 64.192
rfoot -9.13362 -18.7372
rtoes -13.3465
lfemur -8.12141 -5.62593 -29.3624
ltibia 22.2778
lfoot -12.785 8.53631
ltoes -4.99189
1076
root 2.05853 15.6549 -2.09859 2367 -82.7155 -2365.38
lowerback 4.90703 1.50239 -7.5057
upperback -1.31373 1.51795 0.216754
thorax -4.33601 0.949329 4.30847
lowerneck -18.0385 1.46009 1.62908
upperneck 28.3227 1.81274 -2.33241
head 12.4119 0.480142 -0.919843
rclavicle -2.34566e-014 1.21259e-014
rhumerus -40.4061 -30.04 -70.2989
rradius 12.1007
rwrist 28.9654
rhand -29.9723 -17.6137
rfingers 7.12502
rthumb -3.29067 -47.5681
lclavicle -2.34566e-014 1.21259e-014
lhumerus -23.1878 -6.93031 91.8811
lradius 30.2584
lwrist 10.2722
lhand -32.494 15.7156
lfingers 7.12502
lthumb -5.72573 45.6183
rfemur -23.5952 -0.887584 16.398
rtibia 63.3775
rfoot -10.6569 -19.0498
rtoes -13.5024
lfemur -7.56833 -5.58558 -29.6222
ltibia 22.4963
lfoot -13.4273 8.45865
ltoes -4.59429
1077
root 2.07596 15.6319 -2.09797 2368.4 -82.7683 -2366.91
lowerback 5.00168 1.4561 -7.72294
upperback -1.26645 1.43567 0.226607
thorax -4.33622 0.912805 4.44763
lowerneck -18.0708 1.45147 1.5716
upperneck 28.315 1.79576 -2.2557
head 12.4135 0.477047 -0.883235
rclavicle -1.82882e-014 -6.95746e-015
rhumerus -41.7443 -31.1621 -68.4689
rradius 11.7693
rwrist 30.505
rhand -29.9867 -17.4948
rfingers 7.12502
rthumb -3.30461 -47.4489
lclavicle -1.82882e-014 -6.95746e-015
lhumerus -22.5791 -7.18017 91.69
lradius 30.9809
lwrist 10.3716
lhand -32.5142 15.6758
lfingers 7.12502
lthumb -5.74524 45.578
rfemur -24.3286 -0.778076 16.4409
rtibia 62.4288
rfoot -11.9198 -19.5359
rtoes -14.426
lfemur -6.99818 -5.4813 -29.9088
ltibia 22.7422
lfoot -13.8475 8.34976
ltoes -5.87349
1078
root 2.10485 15.6119 -2.09782 2369.64 -82.975 -2368.09
lowerback 5.09214 1.3657 -7.8392
upperback -1.30078 1.30017 0.275705
thorax -4.40983 0.853263 4.57565
lowerneck -18.0612 1.45703 1.54515
upperneck 28.2703 1.80342 -2.22275
head 12.3931 0.483115 -0.864407
rclavicle 3.97569e-016 -1.10325e-014
rhumerus -43.2404 -32.5725 -66.2481
rradius 11.3478
rwrist 32.8911
rhand -29.9751 -17.1279
rfingers 7.12502
rthumb -3.29339 -47.0822
lclavicle 3.97569e-016 -1.10325e-014
lhumerus -21.9968 -7.47318 91.5311
lradius 31.7234
lwrist 10.6439
lhand -32.6015 15.6716
lfingers 7.12502
lthumb -5.82945 45.5714
rfemur -25.205 -0.741421 16.6267
rtibia 61.2544
rfoot -13.0869 -20.2631
rtoes -13.9946
lfemur -6.68868 -5.58473 -30.043
ltibia 22.9832
lfoot -14.2959 8.28392
ltoes -6.37193
